<svg xmlns="http://www.w3.org/2000/svg" viewBox="0 0 360 800" width="360" height="800" font-family="Inter,'Liberation Sans','DejaVu Sans',sans-serif">
<title>Share card export</title>
<defs><clipPath id="cc1"><rect x="40" y="108" width="280" height="350" rx="16"/></clipPath><linearGradient id="ph2" x1="0" y1="0" x2="1" y2="1"><stop offset="0" stop-color="#D8CCBE"/><stop offset="1" stop-color="#A99684"/></linearGradient><radialGradient id="hl3" cx="0.34" cy="0.28" r="0.75"><stop offset="0" stop-color="#FFFFFF" stop-opacity="0.34"/><stop offset="1" stop-color="#3B2A1C" stop-opacity="0.26"/></radialGradient><linearGradient id="cg4" x1="0" y1="0" x2="0" y2="1"><stop offset="0" stop-color="#1A120C" stop-opacity="0.30"/><stop offset="0.45" stop-color="#1A120C" stop-opacity="0.78"/><stop offset="1" stop-color="#1A120C" stop-opacity="0.94"/></linearGradient><mask id="cres5"><rect x="275.0" y="403.0" width="22" height="22" fill="#fff"/><circle cx="289.78" cy="411.3" r="7.74" fill="#000"/></mask></defs>
<rect width="360" height="800" fill="#FAF7F2"/>
<text x="16" y="16" font-family="Inter,'Liberation Sans','DejaVu Sans',sans-serif" font-size="11" font-weight="500" fill="#5C5147">8:24</text>
<rect x="296" y="17" width="3" height="4" fill="#5C5147" rx="1"/>
<rect x="301" y="15" width="3" height="6" fill="#5C5147" rx="1"/>
<rect x="306" y="13" width="3" height="8" fill="#5C5147" rx="1"/>
<rect x="311" y="11" width="3" height="10" fill="#5C5147" rx="1"/>
<path d="M320 15 q5 -4 10 0 M323 18 q2.5 -2 5 0" fill="none" stroke="#5C5147" stroke-width="1.4"/>
<rect x="334" y="9" width="18" height="9" fill="none" rx="2" stroke="#5C5147" stroke-width="1"/>
<rect x="336" y="11" width="11" height="5" fill="#5C5147" rx="1"/>
<text x="16" y="64.0" font-family="Fraunces,'Noto Serif Display',Georgia,serif" font-size="22" font-weight="600" fill="#211A15">Share</text>
<path d="M313 49.0 l14 14 M327 49.0 l-14 14" fill="none" stroke="#211A15" stroke-width="2"/>
<line x1="0" y1="88" x2="360" y2="88" stroke="#DFD5C9" stroke-width="1"/>
<g clip-path="url(#cc1)">
<rect x="40" y="108" width="280" height="350" fill="url(#ph2)"/>
<rect x="40" y="108" width="280" height="350" fill="url(#hl3)"/>
<rect x="40" y="108" width="280" height="350" fill="none" stroke="#211A15" stroke-width="1" opacity="0.08"/>
<rect x="40" y="108" width="280" height="350" fill="url(#cg4)"/>
<text x="60" y="152" font-family="Fraunces,'Noto Serif Display',Georgia,serif" font-size="24" font-weight="600" fill="#FFF6EE">Ethiopia Guji</text>
<text x="60" y="178" font-family="Fraunces,'Noto Serif Display',Georgia,serif" font-size="24" font-weight="600" fill="#FFF6EE">Natural</text>
<text x="60" y="200" font-family="Inter,'Liberation Sans','DejaVu Sans',sans-serif" font-size="11" font-weight="500" fill="#E4D3C4">Guji, Ethiopia · Belleville</text>
<polygon points="180.0,291.6 186.7,293.6 191.3,298.8 192.3,305.8 189.4,312.1 183.5,315.9 176.5,315.9 170.6,312.1 167.7,305.8 168.7,298.8 173.3,293.6" fill="none" stroke="#E4D3C4" stroke-width="0.75" opacity="0.35"/>
<polygon points="180.0,279.2 193.4,283.1 202.6,293.7 204.5,307.5 198.7,320.2 187.0,327.8 173.0,327.8 161.3,320.2 155.5,307.5 157.4,293.7 166.6,283.1" fill="none" stroke="#E4D3C4" stroke-width="0.75" opacity="0.35"/>
<polygon points="180.0,266.8 200.1,272.7 213.8,288.5 216.8,309.3 208.1,328.4 190.5,339.7 169.5,339.7 151.9,328.4 143.2,309.3 146.2,288.5 159.9,272.7" fill="none" stroke="#E4D3C4" stroke-width="0.75" opacity="0.35"/>
<polygon points="180.0,254.4 206.8,262.3 225.1,283.4 229.1,311.1 217.5,336.5 194.0,351.6 166.0,351.6 142.5,336.5 130.9,311.1 134.9,283.4 153.2,262.3" fill="none" stroke="#E4D3C4" stroke-width="0.75" opacity="0.35"/>
<polygon points="180.0,242.0 213.5,251.8 236.4,278.2 241.4,312.8 226.9,344.6 197.5,363.5 162.5,363.5 133.1,344.6 118.6,312.8 123.6,278.2 146.5,251.8" fill="none" stroke="#E4D3C4" stroke-width="0.75" opacity="0.35"/>
<line x1="180.0" y1="304" x2="180.0" y2="242.0" stroke="#E4D3C4" stroke-width="0.75"/>
<line x1="180.0" y1="304" x2="213.51973068224706" y2="251.84228096446677" stroke="#E4D3C4" stroke-width="0.75"/>
<line x1="180.0" y1="304" x2="236.39718371198012" y2="278.24426919388304" stroke="#E4D3C4" stroke-width="0.75"/>
<line x1="180.0" y1="304" x2="241.36892939661783" y2="312.8235199729437" stroke="#E4D3C4" stroke-width="0.75"/>
<line x1="180.0" y1="304" x2="226.856473609964" y2="344.60136550460766" stroke="#E4D3C4" stroke-width="0.75"/>
<line x1="180.0" y1="304" x2="197.46741852416864" y2="363.4885643640988" stroke="#E4D3C4" stroke-width="0.75"/>
<line x1="180.0" y1="304" x2="162.53258147583134" y2="363.4885643640988" stroke="#E4D3C4" stroke-width="0.75"/>
<line x1="180.0" y1="304" x2="133.143526390036" y2="344.60136550460766" stroke="#E4D3C4" stroke-width="0.75"/>
<line x1="180.0" y1="304" x2="118.63107060338217" y2="312.8235199729437" stroke="#E4D3C4" stroke-width="0.75"/>
<line x1="180.0" y1="304" x2="123.60281628801987" y2="278.24426919388304" stroke="#E4D3C4" stroke-width="0.75"/>
<line x1="180.0" y1="304" x2="146.4802693177529" y2="251.8422809644668" stroke="#E4D3C4" stroke-width="0.75"/>
<polygon points="180.0,247.0 206.1,263.3 207.1,291.6 230.3,311.2 196.9,318.6 184.2,318.3 174.8,321.8 170.6,312.1 172.6,305.1 147.3,289.1 157.2,268.5" fill="#FFB894" fill-opacity="0.2" stroke="#FFB894" stroke-width="2" stroke-linejoin="round"/>
<circle cx="180.0" cy="247.0" r="2.4" fill="#FFB894"/>
<circle cx="206.1" cy="263.3" r="2.4" fill="#FFB894"/>
<circle cx="207.1" cy="291.6" r="2.4" fill="#FFB894"/>
<circle cx="230.3" cy="311.2" r="2.4" fill="#FFB894"/>
<circle cx="196.9" cy="318.6" r="2.4" fill="#FFB894"/>
<circle cx="184.2" cy="318.3" r="2.4" fill="#FFB894"/>
<circle cx="174.8" cy="321.8" r="2.4" fill="#FFB894"/>
<circle cx="170.6" cy="312.1" r="2.4" fill="#FFB894"/>
<circle cx="172.6" cy="305.1" r="2.4" fill="#FFB894"/>
<circle cx="147.3" cy="289.1" r="2.4" fill="#FFB894"/>
<circle cx="157.2" cy="268.5" r="2.4" fill="#FFB894"/>
<text x="180.0" y="229.5" font-family="Inter,'Liberation Sans','DejaVu Sans',sans-serif" font-size="11" font-weight="500" fill="#E4D3C4" text-anchor="middle">Fruity</text>
<text x="222.2" y="241.9" font-family="Inter,'Liberation Sans','DejaVu Sans',sans-serif" font-size="11" font-weight="500" fill="#E4D3C4">Floral</text>
<text x="251.0" y="275.1" font-family="Inter,'Liberation Sans','DejaVu Sans',sans-serif" font-size="11" font-weight="500" fill="#E4D3C4">Tea</text>
<text x="257.2" y="318.6" font-family="Inter,'Liberation Sans','DejaVu Sans',sans-serif" font-size="11" font-weight="500" fill="#E4D3C4">Sweet</text>
<text x="238.9" y="358.6" font-family="Inter,'Liberation Sans','DejaVu Sans',sans-serif" font-size="11" font-weight="500" fill="#E4D3C4">Nutty</text>
<text x="202.0" y="382.3" font-family="Inter,'Liberation Sans','DejaVu Sans',sans-serif" font-size="11" font-weight="500" fill="#E4D3C4">Spices</text>
<text x="158.0" y="382.3" font-family="Inter,'Liberation Sans','DejaVu Sans',sans-serif" font-size="11" font-weight="500" fill="#E4D3C4" text-anchor="end">Roasted</text>
<text x="121.1" y="358.6" font-family="Inter,'Liberation Sans','DejaVu Sans',sans-serif" font-size="11" font-weight="500" fill="#E4D3C4" text-anchor="end">Cereal</text>
<text x="102.8" y="318.6" font-family="Inter,'Liberation Sans','DejaVu Sans',sans-serif" font-size="11" font-weight="500" fill="#E4D3C4" text-anchor="end">Green</text>
<text x="109.0" y="275.1" font-family="Inter,'Liberation Sans','DejaVu Sans',sans-serif" font-size="11" font-weight="500" fill="#E4D3C4" text-anchor="end">Sour</text>
<text x="137.8" y="241.9" font-family="Inter,'Liberation Sans','DejaVu Sans',sans-serif" font-size="11" font-weight="500" fill="#E4D3C4" text-anchor="end">Ferment</text>
<line x1="60" y1="396" x2="300" y2="396" stroke="#E4D3C4" stroke-width="0.75"/>
<text x="60" y="422" font-family="'IBM Plex Mono','DejaVu Sans Mono',monospace" font-size="26" font-weight="600" fill="#FFF6EE">4.5</text>
<text x="116" y="422" font-family="Inter,'Liberation Sans','DejaVu Sans',sans-serif" font-size="14" font-weight="400" fill="#E4D3C4">/ 5 · well extracted</text>
<circle cx="286" cy="414" r="9.0" fill="#FFB894" mask="url(#cres5)"/>
<path d="M280.42 418.68 Q285.55 414.18 288.7 419.94" fill="none" stroke="#FFB894" stroke-width="1.3499999999999999" opacity="0.55"/>
<text x="300" y="438" font-family="Inter,'Liberation Sans','DejaVu Sans',sans-serif" font-size="11" font-weight="500" fill="#E4D3C4" text-anchor="end">Coffee Can</text>
</g>
<text x="180" y="486" font-family="Inter,'Liberation Sans','DejaVu Sans',sans-serif" font-size="11" font-weight="500" fill="#5C5147" text-anchor="middle">1080 × 1350 · rendered on device</text>
<rect x="60" y="516" width="240" height="40" fill="none" rx="20" stroke="#8C7F72" stroke-width="1"/>
<rect x="60" y="516" width="120" height="40" fill="#FFDFD2" rx="20"/>
<rect x="150" y="516" width="30" height="40" fill="#FFDFD2"/>
<line x1="180" y1="516" x2="180" y2="556" stroke="#8C7F72" stroke-width="1"/>
<text x="120" y="541" font-family="Inter,'Liberation Sans','DejaVu Sans',sans-serif" font-size="14" font-weight="600" fill="#3E1207" text-anchor="middle">This bean</text>
<text x="240" y="541" font-family="Inter,'Liberation Sans','DejaVu Sans',sans-serif" font-size="14" font-weight="600" fill="#211A15" text-anchor="middle">This brew</text>
<rect x="16" y="620.0" width="158" height="40" fill="#F0E5DA" rx="8"/>
<text x="95.0" y="645.0" font-family="Inter,'Liberation Sans','DejaVu Sans',sans-serif" font-size="14" font-weight="600" fill="#2A211A" text-anchor="middle">Save to photos</text>
<rect x="186" y="620.0" width="158" height="40" fill="#B4401F" rx="20.0"/>
<text x="265.0" y="645.0" font-family="Inter,'Liberation Sans','DejaVu Sans',sans-serif" font-size="14" font-weight="600" fill="#FFFFFF" text-anchor="middle">Share</text>
<text x="180" y="700" font-family="Inter,'Liberation Sans','DejaVu Sans',sans-serif" font-size="11" font-weight="500" fill="#5C5147" text-anchor="middle">The roaster is credited by name only.</text>
<text x="180" y="720" font-family="Inter,'Liberation Sans','DejaVu Sans',sans-serif" font-size="11" font-weight="500" fill="#5C5147" text-anchor="middle">Your data stays the subject — we sign it small.</text>
<rect x="126.0" y="790" width="108" height="4" fill="#8C7F72" rx="2" opacity="0.5"/>
</svg>
