<svg xmlns="http://www.w3.org/2000/svg" viewBox="0 0 360 800" width="360" height="800" font-family="Fredoka,'Baloo 2','Liberation Sans',sans-serif">
<title>Can Drink catalogue — v1.1</title>
<defs><linearGradient id="ph1" x1="0" y1="0" x2="1" y2="1"><stop offset="0" stop-color="#D8CCBE"/><stop offset="1" stop-color="#A99684"/></linearGradient><radialGradient id="hl2" cx="0.34" cy="0.28" r="0.75"><stop offset="0" stop-color="#FFFFFF" stop-opacity="0.34"/><stop offset="1" stop-color="#3B2A1C" stop-opacity="0.26"/></radialGradient><linearGradient id="ph3" x1="0" y1="0" x2="1" y2="1"><stop offset="0" stop-color="#D8CCBE"/><stop offset="1" stop-color="#A99684"/></linearGradient><radialGradient id="hl4" cx="0.34" cy="0.28" r="0.75"><stop offset="0" stop-color="#FFFFFF" stop-opacity="0.34"/><stop offset="1" stop-color="#3B2A1C" stop-opacity="0.26"/></radialGradient><linearGradient id="ph5" x1="0" y1="0" x2="1" y2="1"><stop offset="0" stop-color="#D8CCBE"/><stop offset="1" stop-color="#A99684"/></linearGradient><radialGradient id="hl6" cx="0.34" cy="0.28" r="0.75"><stop offset="0" stop-color="#FFFFFF" stop-opacity="0.34"/><stop offset="1" stop-color="#3B2A1C" stop-opacity="0.26"/></radialGradient><linearGradient id="ph7" x1="0" y1="0" x2="1" y2="1"><stop offset="0" stop-color="#D8CCBE"/><stop offset="1" stop-color="#A99684"/></linearGradient><radialGradient id="hl8" cx="0.34" cy="0.28" r="0.75"><stop offset="0" stop-color="#FFFFFF" stop-opacity="0.34"/><stop offset="1" stop-color="#3B2A1C" stop-opacity="0.26"/></radialGradient></defs>
<rect width="360" height="800" fill="#F2FAF2"/>
<text x="16" y="16" font-family="Fredoka,'Baloo 2','Liberation Sans',sans-serif" font-size="11" font-weight="500" fill="#515D51">8:24</text>
<rect x="296" y="17" width="3" height="4" fill="#515D51" rx="1"/>
<rect x="301" y="15" width="3" height="6" fill="#515D51" rx="1"/>
<rect x="306" y="13" width="3" height="8" fill="#515D51" rx="1"/>
<rect x="311" y="11" width="3" height="10" fill="#515D51" rx="1"/>
<path d="M320 15 q5 -4 10 0 M323 18 q2.5 -2 5 0" fill="none" stroke="#515D51" stroke-width="1.4"/>
<rect x="334" y="9" width="18" height="9" fill="none" rx="2" stroke="#515D51" stroke-width="1"/>
<rect x="336" y="11" width="11" height="5" fill="#515D51" rx="1"/>
<path d="M32 49.0 l-7 7 l7 7" fill="none" stroke="#1B241C" stroke-width="2"/>
<text x="56" y="64.0" font-family="Fredoka,'Baloo 2','Liberation Sans',sans-serif" font-size="16" font-weight="600" fill="#1B241C">Can Drink</text>
<line x1="313" y1="51.0" x2="327" y2="51.0" stroke="#1B241C" stroke-width="2"/>
<line x1="313" y1="56.0" x2="323" y2="56.0" stroke="#1B241C" stroke-width="2"/>
<line x1="313" y1="61.0" x2="319" y2="61.0" stroke="#1B241C" stroke-width="2"/>
<line x1="0" y1="88" x2="360" y2="88" stroke="#C3D3C4" stroke-width="1"/>
<rect x="16" y="104" width="328" height="56" fill="#E0EFE1" rx="28"/>
<circle cx="44" cy="132" r="8" fill="none" stroke="#515D51" stroke-width="2"/>
<line x1="50" y1="138" x2="56" y2="144" stroke="#515D51" stroke-width="2"/>
<text x="72" y="138" font-family="Fredoka,'Baloo 2','Liberation Sans',sans-serif" font-size="16" font-weight="400" fill="#515D51">Search roasters and beans</text>
<rect x="16" y="176" width="100.0" height="32" fill="#C3EDC5" rx="16.0"/>
<path d="M30 192 l4 4 l8 -9" fill="none" stroke="#002602" stroke-width="2"/>
<text x="48" y="197" font-family="Fredoka,'Baloo 2','Liberation Sans',sans-serif" font-size="14" font-weight="600" fill="#002602">In stock</text>
<rect x="124.0" y="176" width="93.0" height="32" fill="none" rx="16.0" stroke="#6D7B6D" stroke-width="1"/>
<text x="138.0" y="197" font-family="Fredoka,'Baloo 2','Liberation Sans',sans-serif" font-size="14" font-weight="600" fill="#1B241C">Roaster</text>
<path d="M193.0 190 l5 6 l5 -6" fill="none" stroke="#515D51" stroke-width="2"/>
<rect x="225.0" y="176" width="86.0" height="32" fill="none" rx="16.0" stroke="#6D7B6D" stroke-width="1"/>
<text x="239.0" y="197" font-family="Fredoka,'Baloo 2','Liberation Sans',sans-serif" font-size="14" font-weight="600" fill="#1B241C">Origin</text>
<path d="M287.0 190 l5 6 l5 -6" fill="none" stroke="#515D51" stroke-width="2"/>
<text x="20" y="244" font-family="Fredoka,'Baloo 2','Liberation Sans',sans-serif" font-size="12" font-weight="600" fill="#515D51">Newest first · 42 beans</text>
<rect x="16" y="260" width="152" height="218" fill="#FFFFFF" rx="16"/>
<rect x="16" y="260" width="152" height="114" fill="url(#ph1)" rx="16"/>
<rect x="16" y="260" width="152" height="114" fill="url(#hl2)" rx="16"/>
<rect x="16" y="260" width="152" height="114" fill="none" rx="16" stroke="#1B241C" stroke-width="1" opacity="0.08"/>
<rect x="16" y="358" width="152" height="16" fill="#FFFFFF"/>
<rect x="26" y="270" width="42" height="22" fill="#016B53" rx="11"/>
<text x="47" y="285" font-family="Fredoka,'Baloo 2','Liberation Sans',sans-serif" font-size="11" font-weight="500" fill="#FFFFFF" text-anchor="middle">New</text>
<text x="28" y="396" font-family="Fredoka,'Baloo 2','Liberation Sans',sans-serif" font-size="15" font-weight="600" fill="#1B241C">Kenya AA Karatu</text>
<text x="28" y="416" font-family="Fredoka,'Baloo 2','Liberation Sans',sans-serif" font-size="12" font-weight="400" fill="#515D51">Lomi · Kenya</text>
<text x="28" y="434" font-family="Fredoka,'Baloo 2','Liberation Sans',sans-serif" font-size="12" font-weight="400" fill="#515D51">€16 · 250 g</text>
<rect x="28" y="446" width="66" height="22" fill="#C3EDC5" rx="4"/>
<text x="61" y="461" font-family="Fredoka,'Baloo 2','Liberation Sans',sans-serif" font-size="11" font-weight="500" fill="#002602" text-anchor="middle">In stock</text>
<path d="M144 454 v7 h11 v-7" fill="none" stroke="#6D7B6D" stroke-width="1.4"/>
<path d="M148 456 l7 -6 M150 450 h5 v5" fill="none" stroke="#6D7B6D" stroke-width="1.4"/>
<rect x="184" y="260" width="152" height="218" fill="#FFFFFF" rx="16"/>
<rect x="184" y="260" width="152" height="114" fill="url(#ph3)" rx="16"/>
<rect x="184" y="260" width="152" height="114" fill="url(#hl4)" rx="16"/>
<rect x="184" y="260" width="152" height="114" fill="none" rx="16" stroke="#1B241C" stroke-width="1" opacity="0.08"/>
<rect x="184" y="358" width="152" height="16" fill="#FFFFFF"/>
<text x="196" y="396" font-family="Fredoka,'Baloo 2','Liberation Sans',sans-serif" font-size="15" font-weight="600" fill="#1B241C">Panama Geisha</text>
<text x="196" y="416" font-family="Fredoka,'Baloo 2','Liberation Sans',sans-serif" font-size="12" font-weight="400" fill="#515D51">Tanat · Panama</text>
<text x="196" y="434" font-family="Fredoka,'Baloo 2','Liberation Sans',sans-serif" font-size="12" font-weight="400" fill="#515D51">€42 · 100 g</text>
<rect x="196" y="446" width="66" height="22" fill="#C3EDC5" rx="4"/>
<text x="229" y="461" font-family="Fredoka,'Baloo 2','Liberation Sans',sans-serif" font-size="11" font-weight="500" fill="#002602" text-anchor="middle">In stock</text>
<path d="M312 454 v7 h11 v-7" fill="none" stroke="#6D7B6D" stroke-width="1.4"/>
<path d="M316 456 l7 -6 M318 450 h5 v5" fill="none" stroke="#6D7B6D" stroke-width="1.4"/>
<rect x="16" y="494" width="152" height="218" fill="#FFFFFF" rx="16"/>
<rect x="16" y="494" width="152" height="114" fill="url(#ph5)" rx="16"/>
<rect x="16" y="494" width="152" height="114" fill="url(#hl6)" rx="16"/>
<rect x="16" y="494" width="152" height="114" fill="none" rx="16" stroke="#1B241C" stroke-width="1" opacity="0.08"/>
<rect x="16" y="592" width="152" height="16" fill="#FFFFFF"/>
<text x="28" y="630" font-family="Fredoka,'Baloo 2','Liberation Sans',sans-serif" font-size="15" font-weight="600" fill="#1B241C">Brazil Cerrado</text>
<text x="28" y="650" font-family="Fredoka,'Baloo 2','Liberation Sans',sans-serif" font-size="12" font-weight="400" fill="#515D51">Coutume · Brazil</text>
<text x="28" y="668" font-family="Fredoka,'Baloo 2','Liberation Sans',sans-serif" font-size="12" font-weight="400" fill="#515D51">€13 · 250 g</text>
<rect x="28" y="680" width="74" height="22" fill="#E0EFE1" rx="4"/>
<text x="65" y="695" font-family="Fredoka,'Baloo 2','Liberation Sans',sans-serif" font-size="11" font-weight="500" fill="#515D51" text-anchor="middle">Sold out</text>
<path d="M144 688 v7 h11 v-7" fill="none" stroke="#6D7B6D" stroke-width="1.4"/>
<path d="M148 690 l7 -6 M150 684 h5 v5" fill="none" stroke="#6D7B6D" stroke-width="1.4"/>
<rect x="184" y="494" width="152" height="218" fill="#FFFFFF" rx="16"/>
<rect x="184" y="494" width="152" height="114" fill="url(#ph7)" rx="16"/>
<rect x="184" y="494" width="152" height="114" fill="url(#hl8)" rx="16"/>
<rect x="184" y="494" width="152" height="114" fill="none" rx="16" stroke="#1B241C" stroke-width="1" opacity="0.08"/>
<rect x="184" y="592" width="152" height="16" fill="#FFFFFF"/>
<text x="196" y="630" font-family="Fredoka,'Baloo 2','Liberation Sans',sans-serif" font-size="15" font-weight="600" fill="#1B241C">Guatemala Huehue</text>
<text x="196" y="650" font-family="Fredoka,'Baloo 2','Liberation Sans',sans-serif" font-size="12" font-weight="400" fill="#515D51">Belleville · Guatemala</text>
<text x="196" y="668" font-family="Fredoka,'Baloo 2','Liberation Sans',sans-serif" font-size="12" font-weight="400" fill="#515D51">€15 · 250 g</text>
<rect x="196" y="680" width="66" height="22" fill="#C3EDC5" rx="4"/>
<text x="229" y="695" font-family="Fredoka,'Baloo 2','Liberation Sans',sans-serif" font-size="11" font-weight="500" fill="#002602" text-anchor="middle">In stock</text>
<path d="M312 688 v7 h11 v-7" fill="none" stroke="#6D7B6D" stroke-width="1.4"/>
<path d="M316 690 l7 -6 M318 684 h5 v5" fill="none" stroke="#6D7B6D" stroke-width="1.4"/>
<text x="20" y="748" font-family="Fredoka,'Baloo 2','Liberation Sans',sans-serif" font-size="11" font-weight="500" fill="#6D7B6D">Opens the roaster's own page in your browser</text>
<rect x="126.0" y="790" width="108" height="4" fill="#6D7B6D" rx="2" opacity="0.5"/>
</svg>
